<mxfile host="app.diagrams.net" modified="2023-10-04T20:19:55.405Z" agent="Mozilla/5.0 (Windows NT 10.0; Win64; x64) AppleWebKit/537.36 (KHTML, like Gecko) Chrome/117.0.0.0 Safari/537.36" etag="aBCotUyp_SaF8LRfDv1O" version="22.0.2" type="device">
  <diagram name="Page-1" id="4mbIP8wiR40SQpNvolLN">
    <mxGraphModel dx="1434" dy="768" grid="1" gridSize="10" guides="1" tooltips="1" connect="1" arrows="1" fold="1" page="1" pageScale="1" pageWidth="827" pageHeight="1169" math="0" shadow="0">
      <root>
        <mxCell id="0" />
        <mxCell id="1" parent="0" />
        <mxCell id="qogclpJe00g4G4qLHtDp-11" value="InversionEnAcciones" style="swimlane;fontStyle=1;align=center;verticalAlign=top;childLayout=stackLayout;horizontal=1;startSize=26;horizontalStack=0;resizeParent=1;resizeParentMax=0;resizeLast=0;collapsible=1;marginBottom=0;whiteSpace=wrap;html=1;" vertex="1" parent="1">
          <mxGeometry x="40" y="290" width="200" height="160" as="geometry" />
        </mxCell>
        <mxCell id="qogclpJe00g4G4qLHtDp-12" value="- nombre: String&lt;br&gt;- cantidad: Integer&lt;br&gt;- valorUnitario: Real" style="text;strokeColor=none;fillColor=none;align=left;verticalAlign=top;spacingLeft=4;spacingRight=4;overflow=hidden;rotatable=0;points=[[0,0.5],[1,0.5]];portConstraint=eastwest;whiteSpace=wrap;html=1;" vertex="1" parent="qogclpJe00g4G4qLHtDp-11">
          <mxGeometry y="26" width="200" height="54" as="geometry" />
        </mxCell>
        <mxCell id="qogclpJe00g4G4qLHtDp-13" value="" style="line;strokeWidth=1;fillColor=none;align=left;verticalAlign=middle;spacingTop=-1;spacingLeft=3;spacingRight=3;rotatable=0;labelPosition=right;points=[];portConstraint=eastwest;strokeColor=inherit;" vertex="1" parent="qogclpJe00g4G4qLHtDp-11">
          <mxGeometry y="80" width="200" height="8" as="geometry" />
        </mxCell>
        <mxCell id="qogclpJe00g4G4qLHtDp-14" value="+ &amp;lt;&amp;lt;create&amp;gt;&amp;gt; InversionEnAcciones(nom: String, cant: Integer, valor: Real)&lt;br&gt;+ valorActual(): Real" style="text;strokeColor=none;fillColor=none;align=left;verticalAlign=top;spacingLeft=4;spacingRight=4;overflow=hidden;rotatable=0;points=[[0,0.5],[1,0.5]];portConstraint=eastwest;whiteSpace=wrap;html=1;" vertex="1" parent="qogclpJe00g4G4qLHtDp-11">
          <mxGeometry y="88" width="200" height="72" as="geometry" />
        </mxCell>
        <mxCell id="qogclpJe00g4G4qLHtDp-15" value="Inversor" style="swimlane;fontStyle=1;align=center;verticalAlign=top;childLayout=stackLayout;horizontal=1;startSize=26;horizontalStack=0;resizeParent=1;resizeParentMax=0;resizeLast=0;collapsible=1;marginBottom=0;whiteSpace=wrap;html=1;" vertex="1" parent="1">
          <mxGeometry x="295" y="290" width="250" height="150" as="geometry" />
        </mxCell>
        <mxCell id="qogclpJe00g4G4qLHtDp-16" value="- nombre: String" style="text;strokeColor=none;fillColor=none;align=left;verticalAlign=top;spacingLeft=4;spacingRight=4;overflow=hidden;rotatable=0;points=[[0,0.5],[1,0.5]];portConstraint=eastwest;whiteSpace=wrap;html=1;" vertex="1" parent="qogclpJe00g4G4qLHtDp-15">
          <mxGeometry y="26" width="250" height="26" as="geometry" />
        </mxCell>
        <mxCell id="qogclpJe00g4G4qLHtDp-17" value="" style="line;strokeWidth=1;fillColor=none;align=left;verticalAlign=middle;spacingTop=-1;spacingLeft=3;spacingRight=3;rotatable=0;labelPosition=right;points=[];portConstraint=eastwest;strokeColor=inherit;" vertex="1" parent="qogclpJe00g4G4qLHtDp-15">
          <mxGeometry y="52" width="250" height="8" as="geometry" />
        </mxCell>
        <mxCell id="qogclpJe00g4G4qLHtDp-18" value="+ &amp;lt;&amp;lt;create&amp;gt;&amp;gt; Inversor(nombre: String)&lt;br&gt;+ getNombre(): String&lt;br&gt;+ getInversiones(): ValorActualeable[*]&lt;br&gt;+ addInversion(inversion: ValorActualeable)&lt;br&gt;+ valorActual(): Real" style="text;strokeColor=none;fillColor=none;align=left;verticalAlign=top;spacingLeft=4;spacingRight=4;overflow=hidden;rotatable=0;points=[[0,0.5],[1,0.5]];portConstraint=eastwest;whiteSpace=wrap;html=1;" vertex="1" parent="qogclpJe00g4G4qLHtDp-15">
          <mxGeometry y="60" width="250" height="90" as="geometry" />
        </mxCell>
        <mxCell id="qogclpJe00g4G4qLHtDp-19" value="PlazoFijo" style="swimlane;fontStyle=1;align=center;verticalAlign=top;childLayout=stackLayout;horizontal=1;startSize=26;horizontalStack=0;resizeParent=1;resizeParentMax=0;resizeLast=0;collapsible=1;marginBottom=0;whiteSpace=wrap;html=1;" vertex="1" parent="1">
          <mxGeometry x="600" y="290" width="200" height="170" as="geometry" />
        </mxCell>
        <mxCell id="qogclpJe00g4G4qLHtDp-20" value="- fechaConstitucion: LocalDate&lt;br&gt;- montoDepositado: Real&lt;br&gt;- porcentajeDeInteresDiario : Real" style="text;strokeColor=none;fillColor=none;align=left;verticalAlign=top;spacingLeft=4;spacingRight=4;overflow=hidden;rotatable=0;points=[[0,0.5],[1,0.5]];portConstraint=eastwest;whiteSpace=wrap;html=1;" vertex="1" parent="qogclpJe00g4G4qLHtDp-19">
          <mxGeometry y="26" width="200" height="64" as="geometry" />
        </mxCell>
        <mxCell id="qogclpJe00g4G4qLHtDp-21" value="" style="line;strokeWidth=1;fillColor=none;align=left;verticalAlign=middle;spacingTop=-1;spacingLeft=3;spacingRight=3;rotatable=0;labelPosition=right;points=[];portConstraint=eastwest;strokeColor=inherit;" vertex="1" parent="qogclpJe00g4G4qLHtDp-19">
          <mxGeometry y="90" width="200" height="8" as="geometry" />
        </mxCell>
        <mxCell id="qogclpJe00g4G4qLHtDp-22" value="+ &amp;lt;&amp;lt;create&amp;gt;&amp;gt; PlazoFijo(fecha: LocalDate, monto: Real, interes: Real)&lt;br&gt;+ valorActual(): Real" style="text;strokeColor=none;fillColor=none;align=left;verticalAlign=top;spacingLeft=4;spacingRight=4;overflow=hidden;rotatable=0;points=[[0,0.5],[1,0.5]];portConstraint=eastwest;whiteSpace=wrap;html=1;" vertex="1" parent="qogclpJe00g4G4qLHtDp-19">
          <mxGeometry y="98" width="200" height="72" as="geometry" />
        </mxCell>
        <mxCell id="qogclpJe00g4G4qLHtDp-24" value="" style="endArrow=block;dashed=1;endFill=0;endSize=12;html=1;rounded=0;exitX=0.5;exitY=0;exitDx=0;exitDy=0;entryX=0;entryY=1;entryDx=0;entryDy=0;" edge="1" parent="1" source="qogclpJe00g4G4qLHtDp-11" target="qogclpJe00g4G4qLHtDp-34">
          <mxGeometry width="160" relative="1" as="geometry">
            <mxPoint x="160" y="240" as="sourcePoint" />
            <mxPoint x="340" y="142" as="targetPoint" />
          </mxGeometry>
        </mxCell>
        <mxCell id="qogclpJe00g4G4qLHtDp-25" value="" style="endArrow=block;dashed=1;endFill=0;endSize=12;html=1;rounded=0;exitX=0.5;exitY=0;exitDx=0;exitDy=0;entryX=0.5;entryY=1;entryDx=0;entryDy=0;" edge="1" parent="1" source="qogclpJe00g4G4qLHtDp-15" target="qogclpJe00g4G4qLHtDp-34">
          <mxGeometry width="160" relative="1" as="geometry">
            <mxPoint x="170" y="300" as="sourcePoint" />
            <mxPoint x="420" y="142" as="targetPoint" />
          </mxGeometry>
        </mxCell>
        <mxCell id="qogclpJe00g4G4qLHtDp-26" value="" style="endArrow=block;dashed=1;endFill=0;endSize=12;html=1;rounded=0;exitX=0.5;exitY=0;exitDx=0;exitDy=0;entryX=1;entryY=1;entryDx=0;entryDy=0;" edge="1" parent="1" source="qogclpJe00g4G4qLHtDp-19" target="qogclpJe00g4G4qLHtDp-34">
          <mxGeometry width="160" relative="1" as="geometry">
            <mxPoint x="180" y="310" as="sourcePoint" />
            <mxPoint x="500" y="142" as="targetPoint" />
          </mxGeometry>
        </mxCell>
        <mxCell id="qogclpJe00g4G4qLHtDp-34" value="&lt;p style=&quot;margin:0px;margin-top:4px;text-align:center;&quot;&gt;&lt;i&gt;&amp;lt;&amp;lt;Interface&amp;gt;&amp;gt;&lt;/i&gt;&lt;br&gt;&lt;b&gt;Interface&lt;/b&gt;&lt;/p&gt;&lt;hr size=&quot;1&quot;&gt;&lt;p style=&quot;margin:0px;margin-left:4px;&quot;&gt;&lt;/p&gt;&lt;p style=&quot;margin:0px;margin-left:4px;&quot;&gt;+ &lt;i&gt;ValorActual&lt;/i&gt;(): Real&lt;/p&gt;" style="verticalAlign=top;align=left;overflow=fill;fontSize=12;fontFamily=Helvetica;html=1;whiteSpace=wrap;" vertex="1" parent="1">
          <mxGeometry x="325" y="40" width="190" height="70" as="geometry" />
        </mxCell>
        <mxCell id="qogclpJe00g4G4qLHtDp-35" value="" style="endArrow=diamondThin;endFill=0;endSize=24;html=1;rounded=0;entryX=0.75;entryY=0;entryDx=0;entryDy=0;exitX=0.75;exitY=1;exitDx=0;exitDy=0;startArrow=open;startFill=0;" edge="1" parent="1" source="qogclpJe00g4G4qLHtDp-34" target="qogclpJe00g4G4qLHtDp-15">
          <mxGeometry width="160" relative="1" as="geometry">
            <mxPoint x="350" y="400" as="sourcePoint" />
            <mxPoint x="510" y="400" as="targetPoint" />
          </mxGeometry>
        </mxCell>
        <mxCell id="qogclpJe00g4G4qLHtDp-36" value="&lt;font style=&quot;font-size: 14px;&quot;&gt;Inversiones 0 .. *&lt;/font&gt;" style="edgeLabel;html=1;align=center;verticalAlign=middle;resizable=0;points=[];" vertex="1" connectable="0" parent="qogclpJe00g4G4qLHtDp-35">
          <mxGeometry x="-0.7046" y="-2" relative="1" as="geometry">
            <mxPoint x="12" y="13" as="offset" />
          </mxGeometry>
        </mxCell>
      </root>
    </mxGraphModel>
  </diagram>
</mxfile>
